<?xml version="1.0" encoding="utf-8" ?><svg xmlns="http://www.w3.org/2000/svg" xmlns:xlink="http://www.w3.org/1999/xlink" width="700" height="360" viewBox="160 340 700 360"><path fill="#FEFEFE" d="M502.107 360.719C536.627 360.135 565.228 369.201 591.696 392.179C637.194 431.678 640.818 507.042 600.504 551.638C578.172 575.907 547.081 590.264 514.125 591.526C447.829 594.31 389.334 550.901 386.296 482.123C383.257 413.324 434.747 363.482 502.107 360.719Z"/><path fill="#313130" d="M498.437 413.194C512.564 411.321 529.095 414.805 540.912 423.013C569.198 442.66 573.535 488.306 554.197 515.524C544.598 529.036 532.228 535.658 516.006 538.386C500.034 539.806 482.869 537.776 470.342 527.169C431.028 493.883 442.348 419.501 498.437 413.194Z"/><path fill="#00ABA0" d="M838.018 345.65C853.046 346.972 855.153 358.745 850.322 370.992C846.902 379.66 841.507 387.017 837.161 395.187C838.232 407.403 837.78 424.483 837.819 437.21L837.93 507.611C843.215 513.862 849.421 519.608 854.447 526.22C859.933 533.438 873.334 548.326 867.913 558.043C860.656 571.05 847.62 563.972 837.689 559.145C837.556 567.037 836.292 576.747 826.276 577.84C808.918 579.734 791.199 579.615 773.751 579.989C752.018 580.547 730.277 580.754 708.537 580.611C694.574 580.617 677.702 580.954 664.014 579.422C656.094 584.438 642.546 594.554 633.247 593.692C628.609 593.263 626.016 590.38 623.342 587.001C611.106 568.935 630.957 560.339 642.541 550.095C641.424 517 640.943 483.886 641.099 450.772C641.201 435.632 642.265 421.698 641.934 406.311C634.318 399.78 624.61 399.91 616.852 393.098C609.027 386.227 607.811 374.231 615.397 366.726C623.14 359.066 638.189 364.174 646.801 368.116C652.438 370.711 657.951 373.569 663.32 376.682C673.124 382.279 677.974 386.527 689.726 386.51C701.105 386.494 712.597 386.548 723.987 386.543C749.182 386.415 774.378 386.538 799.571 386.912C805.037 380.214 809.964 371.839 814.121 364.225C820.135 353.208 825.102 347.588 838.018 345.65Z"/><path fill="#313130" d="M760.433 491.341C764.03 493.576 772.847 500.427 776.167 503.169C787.511 512.538 800.841 523.123 811.393 533.264C811.592 539.439 811.446 546.303 811.432 552.534C802.151 553.631 790.433 553.494 781.007 553.552L748.25 553.997C731.949 554.144 712.14 555.3 696.117 554.276C702.497 547.724 712.887 539.117 720.075 532.243C733.818 518.899 747.274 505.262 760.433 491.341Z"/><path fill="#313130" d="M668.255 423.118C672.617 424.931 683.168 432.648 687.497 435.693C702.395 445.98 716.971 456.726 731.202 467.917C723.42 477.003 709.773 490.57 700.97 498.895C689.316 510.166 680.901 518.155 668.443 528.618C666.92 495.202 667.573 456.591 668.255 423.118Z"/><path fill="#313130" d="M722.878 413.116C724.857 413.036 733.172 412.999 734.909 413.222C741.033 414.011 775.606 412.131 778.103 414.243C777.34 417.464 770.779 424.447 768.344 427.296C764.788 431.413 761.761 434.977 757.847 438.772C752.091 434.537 746.297 430.356 740.464 426.228C736.335 423.352 725.971 416.587 722.878 413.116Z"/><path fill="#313130" d="M809.953 433.225C811.665 433.935 812.141 436.593 812 438.203C810.685 453.259 811.28 467.907 811.471 482.984C807.294 479.798 803.306 476.313 799.306 472.902C795.105 469.45 790.966 465.923 786.89 462.324C789.935 458.164 793.992 453.437 797.274 449.253C801.319 444.096 805.714 438.065 809.953 433.225Z"/><path fill="#FEFEFE" d="M176.607 364.234C190.208 363.707 205.199 364.259 218.895 364.074C233.808 363.872 249.281 364.124 264.158 364.286C294.393 364.499 323.657 376.961 344.19 399.281C383.947 442.498 381.742 520.634 338.172 560.696C336.241 562.452 334.247 564.138 332.195 565.75C296.195 593.657 258.969 589.269 216.597 589.395C205.377 589.428 182.026 590.096 172.134 588.878C171.343 584.057 171.658 570.563 171.661 565.209L171.657 521.464C171.634 471.826 171.617 422.132 171.661 372.491C171.663 370.373 171.657 367.097 172.277 365.127C173.792 364.015 174.332 364.381 176.607 364.234Z"/><path fill="#313130" d="M231.498 414.071C251.947 413.725 274.198 413.095 290.722 427.16C308.501 442.295 313.102 467.892 309.618 490.018C307.66 502.451 302.719 512.491 294.684 522.012C294.214 522.507 293.726 522.984 293.219 523.441C275.214 539.916 254.616 538.398 231.581 537.423L231.498 414.071Z"/><path fill="#00ABA0" d="M481.021 639.962C482.694 639.906 483.21 639.767 484.757 640.462C485.801 642.306 485.449 641.913 485.415 644.365L485.948 644.805C488.036 643.192 490.117 641.218 492.833 640.524C508.919 636.412 518.668 652.231 511.417 665.964C509.311 669.952 505.644 671.751 501.242 672.922C500.398 673.029 499.551 673.114 498.703 673.178C493.116 673.56 489.485 670.972 485.539 667.506C485.544 669.952 485.858 682.632 485.294 684.139C484.144 684.645 483.167 684.413 481.889 684.306C479.479 681.815 480.932 646.304 481.021 639.962Z"/><path fill="#313130" d="M496.48 644.133C512.576 644.724 513.199 666.756 498.697 668.781C495.793 668.652 494.027 668.68 491.544 667.103C488.591 665.232 486.543 662.224 485.885 658.79C484.331 650.993 488.879 645.389 496.48 644.133Z"/><path fill="#00ABA0" d="M672.745 639.636C681.235 639.689 686.625 646.118 688.774 653.892C689.231 655.546 689.012 656.27 688.189 657.664C685.32 659.158 666.338 658.478 661.258 658.556C664.85 667.599 670.774 671.866 680.473 667.072C681.129 666.521 681.834 665.975 682.506 665.439C684.368 665.31 683.528 665.102 685.116 666.087C686.195 670.077 681.264 672.05 677.986 672.801C661.368 676.609 650.622 659.645 660.313 646.022C663.301 641.822 667.62 640.303 672.745 639.636Z"/><path fill="#313130" d="M670.633 644.101C679.139 643.917 681.702 646.765 684.1 654.573L676.054 654.548L661.364 654.523C663.009 648.054 664.293 646.174 670.633 644.101Z"/><path fill="#FEFEFE" d="M413.752 640.163C416.003 640.134 416.596 639.755 418.307 640.662C418.374 642.197 418.342 642.676 418.711 644.187C422.517 643.265 426.426 638.699 431.708 639.534C436.138 640.234 439.096 642.953 441.673 646.282C449.454 638.274 460.763 635.929 466.191 647.512C468.197 651.791 468.948 667.245 467.262 671.603C466.302 672.519 465.352 673.512 464.036 672.733C459.25 664.46 470.736 642.395 449.711 644.703C437.994 651.225 446.117 668.805 442.442 672.496C440.684 672.911 440.809 672.88 439.045 672.437C435.972 664.157 442.784 651.959 433.559 645.038L433.037 644.654C409.702 640.975 423.558 669.091 416.501 673.438C415.801 673.335 414.602 672.82 414.5 672.468C413.003 667.303 413.624 644.644 413.752 640.163Z"/><path fill="#00ABA0" d="M545.451 642.749C546.159 643.741 547.507 645.744 547.849 646.822C549.09 650.736 550.509 669.525 548.504 672.235C546.958 672.561 546.552 672.782 545.007 672.475C544.456 671.292 544.5 671.19 544.299 669.879C540.003 670.776 531.06 676.354 525.804 671.916C517.43 664.846 521.506 654.227 532.745 654.356C536.402 654.269 541.994 654.388 544.103 652.603C545.33 648.841 541.733 645.99 538.782 644.315C541.555 644.087 543.171 645.782 544.845 644.97L545.451 642.749Z"/><path fill="#313130" d="M533.067 658.141C536.824 657.869 540.797 657.956 544.582 657.969L543.872 664.42C541.944 666.658 540.778 667.396 538.162 668.647C524.248 670.964 522.496 659.656 533.067 658.141Z"/><path fill="#00ABA0" d="M630.522 640.07C648.532 638.741 646.932 652.466 646.758 665.723C646.73 667.901 646.607 670.331 646.074 672.439C644.224 672.809 645.126 672.849 643.274 672.22C638.012 665.957 650.326 642.751 628.897 644.56C615.8 649.869 625.108 667.355 619.935 672.341C618.073 672.788 618.982 672.803 617.106 672.229C616.191 667.855 616.483 645.717 616.993 640.77L618.437 639.8C622.389 639.794 620.667 643.623 621.974 644.794C625.64 641.946 625.885 641.168 630.522 640.07Z"/><path fill="#FEFEFE" d="M395.705 640.131C397.508 640.056 397.842 639.982 399.647 640.451C401.106 643.257 399.973 665.406 400.207 669.877C400.31 671.84 399.894 672.232 398.753 673.216C397.318 673.502 397.927 673.664 396.814 673.084C395.775 671.833 395.739 670.968 395.371 669.37L395.225 668.721C379.263 678.004 370.717 672.695 370.298 654.575C370.206 650.96 369.499 643.588 371.241 640.762C372.538 640.164 372.912 640.367 374.347 640.537C378.268 645.569 367.448 677.444 392.254 666.666C397.351 659.105 395.379 649.807 395.705 640.131Z"/><path fill="#FEFEFE" d="M347.639 640.136C350.562 639.966 358.059 640.685 359.692 643.499C359.532 644.901 359.382 644.879 358.538 646.06C356.642 646.415 353.506 644.723 351.28 644.4C347.466 643.846 340.676 644.873 340.155 649.741C343.338 656.167 361.169 653.999 361.387 663.299C361.573 671.264 353.123 672.761 347.446 673.043C344.263 672.645 337.108 671.842 335.561 668.873L336.237 667.548C341.685 664.586 349.414 673.759 356.531 665.25C357.421 661.714 351.278 659.65 348.682 659.331C332.278 657.313 331.068 642.47 347.639 640.136Z"/><defs><linearGradient id="gradient_0" gradientUnits="userSpaceOnUse" x1="606.40747" y1="649.2536" x2="587.83228" y2="656.21893"><stop offset="0" stop-color="#009096"/><stop offset="1" stop-color="#00ABAD"/></linearGradient></defs><path fill="url(#gradient_0)" d="M590.156 632.491C592.473 632.455 593.27 632.166 594.978 633.255C595.893 635.147 595.331 638.211 595.146 640.45C598.971 640.419 602.355 639.653 605.108 642.195L605.019 642.925C602.223 645.15 599.053 644.548 595.452 644.432C595.543 650.327 594.575 660.364 595.972 665.663C597.559 671.687 603.096 666.979 606.968 668.765C606.856 670.351 606.985 670.615 606.08 671.925C602.914 673.953 595.754 673.601 593.371 670.82C588.754 665.432 590.171 651.393 590.163 644.516C588.32 644.522 587.489 644.54 585.686 644.264C584.089 643.017 584.465 643.777 584.121 642.142C585.667 639.719 587.83 640.269 590.426 640.302L590.156 632.491Z"/><path fill="#FEFEFE" d="M280.905 640.494C282.736 640.431 283.003 640.416 284.792 640.691C286.871 642.391 295.349 662.814 297.269 667.077C299.355 662.725 307.557 642.947 309.79 640.88C311.29 640.696 311.604 640.612 313.144 640.736C313.481 642.338 312.887 642.925 312.207 644.765C309.876 649.727 302.168 669.148 299.585 672.08C297.383 672.438 297.285 672.463 295.132 672.025C292.09 668.239 282.845 645.915 280.905 640.494Z"/><path fill="#00ABA0" d="M566.966 645.912C570.005 642.575 575.043 637.626 579.669 641.488L579.56 642.78C575.391 648.469 569.132 641.927 567.533 654.933C567.541 657.429 567.795 670.816 567.217 672.239C565.647 672.653 564.929 672.401 563.341 672.136C561.771 670.291 562.591 644.83 562.627 640.133C564.239 640.152 565.435 639.989 566.838 640.733C567.641 642.512 567.169 643.743 566.966 645.912Z"/><path fill="#00ABA0" d="M699.117 640.065C700.353 640.046 701.066 640.104 702.301 640.216C704.139 641.816 703.065 643.402 704.383 644.491C706.991 642.303 710.752 639.522 714.401 640.269C715.545 641.78 715.121 640.921 715.327 643.102C712.518 649.588 704.445 640.993 703.807 656.8L703.777 657.625C703.791 660.877 704.54 670.432 702.785 672.425C701.178 672.541 701.268 672.587 699.751 672.086C698.424 669.059 699.08 645.186 699.117 640.065Z"/><path fill="#FEFEFE" d="M747.845 652.082C755.962 651.749 824.487 651.453 826.582 652.492L827.131 654.445C822.78 654.504 810.283 654.779 806.708 654.516C798.544 653.915 751.07 655.644 748.236 653.877L747.845 652.082Z"/><path fill="#FEFEFE" d="M173.721 652.158C180.962 651.772 247.599 651.561 249.713 652.437L250.363 654.451C242.048 654.577 176.447 655.421 174 654.008L173.721 652.158Z"/><path fill="#FEFEFE" d="M321.112 640.389C323.033 640.332 323.42 640.299 325.279 640.659C326.688 642.343 325.957 668.38 325.928 672.536C324.158 672.572 323.719 672.533 321.954 672.3C320.376 670.481 321.089 645.037 321.112 640.389Z"/><path fill="#00ABA0" d="M538.782 644.315C537.344 644.485 534.98 644.319 533.518 644.58C529.867 645.232 526.888 646.537 523.054 645.907L523.071 644.321C530.327 639.068 537.677 638.047 545.451 642.749L544.845 644.97C543.171 645.782 541.555 644.087 538.782 644.315Z"/><path fill="#FEFEFE" d="M322.949 627.202C324.659 626.795 326.387 627.805 326.873 629.495C327.358 631.184 326.428 632.957 324.763 633.519C323.615 633.906 322.347 633.632 321.463 632.804C320.579 631.976 320.221 630.73 320.531 629.559C320.842 628.388 321.771 627.483 322.949 627.202Z"/></svg>